<svg xmlns="http://www.w3.org/2000/svg" viewBox="43.67 144 487.66 271.72"><rect height="100%" width="100%" x="43.67" y="144" fill="rgba(255, 255, 255, 1)"/> <svg xmlns="http://www.w3.org/2000/svg" id="Layer_1" dataName="Layer 1" viewBox="85.25929260253906 205.32957458496094 828.0205078125 593.4104614257812" height="89" width="125" y="214" x="226" preserveAspectRatio="xMinYMin" style="overflow: visible;"><path d="M193.54,550.1s0,0,0,0l-.09,0-.2,0h-.13c-.23,0-.55,0-1,0h-1.09l1-.11,1.49-.16C193.52,550,193.54,550.08,193.54,550.1Z" style="fill: #c29c2f; fill-opacity: 1;"></path><path d="M887.86,639.5a.06.06,0,0,1,0,0l-.09.37c0-.15.07-.29.12-.44a.06.06,0,0,1,0,0l.06-.24A1.81,1.81,0,0,1,887.86,639.5Zm.46-1.84a1.44,1.44,0,0,1-.05.24c.05-.16.08-.31.12-.47s.05-.21.07-.32a3,3,0,0,0,.09-.43C888.48,637,888.4,637.34,888.32,637.66Zm1.27-6.6c-.07.52-.15,1.05-.24,1.57.1-.6.2-1.2.28-1.81A2,2,0,0,1,889.59,631.06Zm17.54,1.32c0,.36-.09.71-.14,1.06,0,0,0,0,0,.08-.1.67-.2,1.34-.32,2l-.06.36s0,.09,0,.13c-.07.41-.14.83-.23,1.24s-.18,1-.28,1.43a.5.5,0,0,1,0,.12c-.16.8-.34,1.59-.52,2.39q-.87,3.74-2,7.41c-.1.32-.21.64-.31,1h0a94.55,94.55,0,0,0,4-17.18Z" style="fill: #c29c2f; fill-opacity: 1;"></path><path d="M862.27,682h0a6.08,6.08,0,0,1-.44.44c-.39.4-.79.79-1.2,1.18l-.07.07-.08.08-1.17,1.11L858,686.12l-.31.29h.12c1.83-1.71,3.61-3.44,5.29-5.22Zm11.88,13-.61.6-1.15,1.11-.46.44-.07.07,0,0h0l-.68.64,0,0c1.81-1.71,3.56-3.46,5.24-5.22C875.66,693.43,874.91,694.19,874.15,695Zm6.51-6.91h0Z" style="fill: #c29c2f; fill-opacity: 1;"></path><path d="M780.28,731.83c.46-.17.92-.36,1.37-.54l1.05-.42.7-.29.7-.29Zm21.53-9.31L798.64,724l2-.9c.81-.37,1.62-.75,2.43-1.15Zm24.91,6.94h0c-.94.52-1.89,1-2.85,1.55l0,0c-1.05.56-2.1,1.12-3.16,1.67-.33.18-.67.35-1,.52s-.8.42-1.21.62l-1,.51,0,0c-1.08.55-2.17,1.09-3.27,1.63l-1.65.8-1.67.8,0,0-3.38,1.6-2.14,1-.1,0-.54.24a.39.39,0,0,0,.14,0q11.67-5.31,22.06-11Z" style="fill: #c29c2f; fill-opacity: 1;"></path><path d="M275.11,502.37c-.06.12-.11.24-.16.36l.41-.14Zm77.1,75.91c-.58.15-1.17.28-1.76.39l1.79,1.35C352.23,579.22,352.22,578.62,352.21,578.28ZM738.92,764.12l-1.09.31-4.05,1.12-.27.07-3.83,1-.54.14-4.41,1.15-1.78.45-.3.08h0l-1.22.31q-5,1.26-10.17,2.47l-2,.47.09,0q15.29-3.53,29.71-7.61S738.94,764.14,738.92,764.12Zm-28.44-10.71h0l.09,0h0Zm-2.21.52-2.17.51,1.61-.37,1-.24A3.63,3.63,0,0,0,708.27,753.93Zm-5.07,1.18,1.17-.26,1.73-.41Z" style="fill: #c29c2f; fill-opacity: 1;"></path><path d="M623.81,786.44q-3.4.42-6.84.81l-4.29.49q5.63-.6,11.2-1.27A.11.11,0,0,1,623.81,786.44Zm-33.55-14.16-.43,0-4.45.38-2.25.18L582,773l-4.43.34-.74.05-.76.06-1,.08q3-.19,5.93-.42,4.71-.35,9.39-.75A.27.27,0,0,1,590.26,772.28Zm-24.1,1.81h.25l2-.13Zm-1.3.08,1-.06.21,0Zm-10.06.58-1.58.08-.57,0h0l1.85-.1,1.83-.1ZM288.61,604.33a7.65,7.65,0,0,1-2.18,3.07s3,.14,6.86.29C291.72,606.58,290.17,605.46,288.61,604.33ZM193.5,549.91l-1.49.16.13.12c.4,0,.72,0,1,0h.13l.2,0,.09,0s0,0,0,0S193.52,550,193.5,549.91Zm40.87,12.94,0,.23.27,0Z" style="fill: #c29c2f; fill-opacity: 1;"></path><path class="cls-1" d="M807.79,351c-.54-.64-1.1-1.28-1.66-1.91l.31,0C806.9,349.69,807.35,350.35,807.79,351Z" style="fill: none;"></path><path class="cls-1" d="M463.34,568.85a320.43,320.43,0,0,0-22,51.21l-1.82-1.16q10.94-27.12,22.89-50.71Z" style="fill: none;"></path><path class="cls-2" d="M482.12,665q-9.4,5.12-18.25,10.51Q449,661.14,433.8,648.6c.52-2.7,1.31-6.42,2.46-11Q458.57,651.56,482.12,665Z" style="fill: #f8f5ee; fill-opacity: 1;"></path><path d="M475.68,793.46q-5.55-.12-11.15-.32h-.15l-4.89-.17-4.9-.19-4.92-.21-9.22-.42-.39,0-4.4-.24c-21.14-1.18-42.86-3.15-64.72-5.89l-12.51-1.56c24.79,3.44,50.64,6,77.21,7.49,17.32,1,35,1.61,52.81,1.76Q482.11,793.62,475.68,793.46Zm432.37-176-.14,5.26c0,.18,0,.35,0,.53s0,.32,0,.48q0,1-.09,1.95c0,.22,0,.43,0,.65s0,.71-.07,1.07-.06.7-.09,1.06c-.07.81-.15,1.61-.24,2.42,0,.31-.07.61-.12.92s-.05.41-.08.62-.09.71-.14,1.06c0,0,0,0,0,.08-.1.67-.2,1.34-.32,2l-.06.36s0,.09,0,.13c-.07.41-.14.83-.23,1.24s-.18,1-.28,1.43a.5.5,0,0,1,0,.12c-.16.8-.34,1.59-.52,2.39q-.87,3.74-2,7.41c-.1.32-.21.64-.31,1s-.16.48-.25.72-.22.67-.34,1q-.86,2.43-1.86,4.83c-.33.8-.68,1.6-1,2.4a1.42,1.42,0,0,1-.08.18c-.34.77-.7,1.54-1.07,2.3a.18.18,0,0,1,0,.09c-.35.74-.72,1.48-1.1,2.22l-.09.18c-.32.64-.64,1.28-1,1.91-.17.35-.36.69-.54,1l-.11.21-.12.22,0,0c-.45.83-.92,1.66-1.4,2.49l-.24.42-.75,1.26c-.25.42-.5.83-.76,1.24l-.78,1.24,0,0a103.93,103.93,0,0,0,11.56-23.93,94.55,94.55,0,0,0,4-17.18,96.29,96.29,0,0,0,.85-10.8s0,0,0-.05c0-.77,0-1.54,0-2.32C908.06,618.63,908.06,618,908.05,617.42ZM890.79,674.8l0,.07,0-.07,0,0A.1.1,0,0,1,890.79,674.8Zm-.57-70c.1,2.89.18,5.78.22,8.68h0Q890.4,609.13,890.22,604.8Zm-1.9,32.86a1.44,1.44,0,0,1-.05.24c.05-.16.08-.31.12-.47s.05-.21.07-.32a3,3,0,0,0,.09-.43C888.48,637,888.4,637.34,888.32,637.66ZM880.66,688h0ZM775,733.86l-3.84,1.43q-12.37,4.56-25.75,8.66l.35-.1c2.05-.63,4.09-1.27,6.1-1.91l3.63-1.18,2.9-1,1.2-.4.25-.09,1.06-.36c1.79-.61,3.57-1.23,5.32-1.85l2.21-.8c1.14-.4,2.26-.82,3.38-1.23l1.6-.6,2.32-.88Zm5.25-2c.46-.17.92-.36,1.37-.54l1.05-.42.7-.29.7-.29Zm-5.25,2-3.84,1.43q-12.37,4.56-25.75,8.66l.35-.1c2.05-.63,4.09-1.27,6.1-1.91l3.63-1.18,2.9-1,1.2-.4.25-.09,1.06-.36c1.79-.61,3.57-1.23,5.32-1.85l2.21-.8c1.14-.4,2.26-.82,3.38-1.23l1.6-.6,2.32-.88Zm5.25-2c.46-.17.92-.36,1.37-.54l1.05-.42.7-.29.7-.29Zm-5.25,2-3.84,1.43q-12.37,4.56-25.75,8.66l.35-.1c2.05-.63,4.09-1.27,6.1-1.91l3.63-1.18,2.9-1,1.2-.4.25-.09,1.06-.36c1.79-.61,3.57-1.23,5.32-1.85l2.21-.8c1.14-.4,2.26-.82,3.38-1.23l1.6-.6,2.32-.88Zm5.25-2c.46-.17.92-.36,1.37-.54l1.05-.42.7-.29.7-.29Zm-5.25,2-3.84,1.43q-12.37,4.56-25.75,8.66l.35-.1c2.05-.63,4.09-1.27,6.1-1.91l3.63-1.18,2.9-1,1.2-.4.25-.09,1.06-.36c1.79-.61,3.57-1.23,5.32-1.85l2.21-.8c1.14-.4,2.26-.82,3.38-1.23l1.6-.6,2.32-.88Zm5.25-2c.46-.17.92-.36,1.37-.54l1.05-.42.7-.29.7-.29Zm-5.25,2-3.84,1.43q-12.37,4.56-25.75,8.66l.35-.1c2.05-.63,4.09-1.27,6.1-1.91l3.63-1.18,2.9-1,1.2-.4.25-.09,1.06-.36c1.79-.61,3.57-1.23,5.32-1.85l2.21-.8c1.14-.4,2.26-.82,3.38-1.23l1.6-.6,2.32-.88Zm5.25-2c.46-.17.92-.36,1.37-.54l1.05-.42.7-.29.7-.29Zm-5.25,2-3.84,1.43q-12.37,4.56-25.75,8.66l.35-.1c2.05-.63,4.09-1.27,6.1-1.91l3.63-1.18,2.9-1,1.2-.4.25-.09,1.06-.36c1.79-.61,3.57-1.23,5.32-1.85l2.21-.8c1.14-.4,2.26-.82,3.38-1.23l1.6-.6,2.32-.88Zm5.25-2c.46-.17.92-.36,1.37-.54l1.05-.42.7-.29.7-.29Zm-5.25,2-3.84,1.43q-12.37,4.56-25.75,8.66l.35-.1c2.05-.63,4.09-1.27,6.1-1.91l3.63-1.18,2.9-1,1.2-.4.25-.09,1.06-.36c1.79-.61,3.57-1.23,5.32-1.85l2.21-.8c1.14-.4,2.26-.82,3.38-1.23l1.6-.6,2.32-.88Zm5.25-2c.46-.17.92-.36,1.37-.54l1.05-.42.7-.29.7-.29Zm-5.25,2-3.84,1.43q-12.37,4.56-25.75,8.66l.35-.1c2.05-.63,4.09-1.27,6.1-1.91l3.63-1.18,2.9-1,1.2-.4.25-.09,1.06-.36c1.79-.61,3.57-1.23,5.32-1.85l2.21-.8c1.14-.4,2.26-.82,3.38-1.23l1.6-.6,2.32-.88Zm5.25-2c.46-.17.92-.36,1.37-.54l1.05-.42.7-.29.7-.29Zm-5.25,2-3.84,1.43q-12.37,4.56-25.75,8.66l.35-.1c2.05-.63,4.09-1.27,6.1-1.91l3.63-1.18,2.9-1,1.2-.4.25-.09,1.06-.36c1.79-.61,3.57-1.23,5.32-1.85l2.21-.8c1.14-.4,2.26-.82,3.38-1.23l1.6-.6,2.32-.88Zm5.25-2c.46-.17.92-.36,1.37-.54l1.05-.42.7-.29.7-.29Zm-5.25,2-3.84,1.43q-12.37,4.56-25.75,8.66l.35-.1c2.05-.63,4.09-1.27,6.1-1.91l3.63-1.18,2.9-1,1.2-.4.25-.09,1.06-.36c1.79-.61,3.57-1.23,5.32-1.85l2.21-.8c1.14-.4,2.26-.82,3.38-1.23l1.6-.6,2.32-.88Zm5.25-2c.46-.17.92-.36,1.37-.54l1.05-.42.7-.29.7-.29Zm-5.25,2-3.84,1.43q-12.37,4.56-25.75,8.66l.35-.1c2.05-.63,4.09-1.27,6.1-1.91l3.63-1.18,2.9-1,1.2-.4.25-.09,1.06-.36c1.79-.61,3.57-1.23,5.32-1.85l2.21-.8c1.14-.4,2.26-.82,3.38-1.23l1.6-.6,2.32-.88Zm5.25-2c.46-.17.92-.36,1.37-.54l1.05-.42.7-.29.7-.29Zm-5.25,2-3.84,1.43q-12.37,4.56-25.75,8.66l.35-.1c2.05-.63,4.09-1.27,6.1-1.91l3.63-1.18,2.9-1,1.2-.4.25-.09,1.06-.36c1.79-.61,3.57-1.23,5.32-1.85l2.21-.8c1.14-.4,2.26-.82,3.38-1.23l1.6-.6,2.32-.88Zm5.25-2c.46-.17.92-.36,1.37-.54l1.05-.42.7-.29.7-.29Zm-5.25,2-3.84,1.43q-12.37,4.56-25.75,8.66l.35-.1c2.05-.63,4.09-1.27,6.1-1.91l3.63-1.18,2.9-1,1.2-.4.25-.09,1.06-.36c1.79-.61,3.57-1.23,5.32-1.85l2.21-.8c1.14-.4,2.26-.82,3.38-1.23l1.6-.6,2.32-.88Zm5.25-2c.46-.17.92-.36,1.37-.54l1.05-.42.7-.29.7-.29ZM623.81,786.44q-3.4.42-6.84.81l-4.29.49q5.63-.6,11.2-1.27A.11.11,0,0,1,623.81,786.44ZM874.15,695l-.61.6-1.15,1.11-.46.44-.07.07,0,0h0l-.68.64-1.44,1.34-.22.2-.06.05-.26.24c-.69.62-1.39,1.25-2.1,1.87l-.12.1c-1.46,1.3-3,2.59-4.51,3.87l-.9.74-.12.1-1.36,1.1-.06,0c-1.58,1.27-3.21,2.53-4.87,3.77-.67.5-1.34,1-2,1.49l-.54.4,0,0-.27.19c-.76.55-1.52,1.1-2.29,1.64l-.05,0-.26.17-.1.07-.25.18c-.68.48-1.37,1-2.06,1.42q-1.35.93-2.73,1.83c-.8.53-1.6,1.06-2.42,1.58l-.17.11-.15.09,0,0-2.8,1.76,0,0-1.74,1.06-.22.13-.9.55,0,0-2.64,1.57-.28.16-1.06.62c-.64.38-1.29.75-2,1.12l0,0c-1.09.62-2.18,1.23-3.29,1.84h0c-.94.52-1.89,1-2.85,1.55l0,0c-1.05.56-2.1,1.12-3.16,1.67-.33.18-.67.35-1,.52s-.8.42-1.21.62l-1,.51,0,0c-1.08.55-2.17,1.09-3.27,1.63l-1.65.8-1.67.8,0,0-3.38,1.6-2.14,1-.1,0-.54.24-.06,0-.58.26h0l-3.47,1.54h0L797,743.88c-2.38,1-4.79,2-7.24,3l-.53.21-.39.16-.75.3-.66.26-.08,0-.26.1-1.15.46-.12.05-2.2.86-.44.17-.32.12-.55.21-.81.31-.77.29-.81.3c-.47.19-.94.36-1.41.53a3.25,3.25,0,0,1-.4.15l-2,.74-1.45.53h0l-.71.25-.11,0-.07,0,0,0-.29.1-.13,0-.11,0-.37.13-.33.12-1.13.4-.59.21-1.38.48-2.57.89-2,.68-2,.67-2.79.92-.83.27-.1,0-.13,0-.1,0-.1,0h0l-.13,0h-.05l-.1,0-.2.07-.29.09-.06,0-.67.22q-2.82.9-5.69,1.79l-2.25.68-2,.59-1,.29h0l-3,.87-1.24.36-.14,0-2,.57-1.05.3-1.09.31-4.05,1.12-.27.07-3.83,1-.54.14-4.41,1.15-1.78.45-.3.08h0l-1.22.31q-5,1.26-10.17,2.47l-2,.47.09,0q15.29-3.53,29.71-7.61,20.07-5.67,38.26-12.36,14.55-5.35,27.53-11.25,11.67-5.31,22.06-11,26.35-14.5,44.31-31.62c1.81-1.71,3.56-3.46,5.24-5.22C875.66,693.43,874.91,694.19,874.15,695Zm-93.87,36.88c.46-.17.92-.36,1.37-.54l1.05-.42.7-.29.7-.29Zm-5.25,2-3.84,1.43q-12.37,4.56-25.75,8.66l.35-.1c2.05-.63,4.09-1.27,6.1-1.91l3.63-1.18,2.9-1,1.2-.4.25-.09,1.06-.36c1.79-.61,3.57-1.23,5.32-1.85l2.21-.8c1.14-.4,2.26-.82,3.38-1.23l1.6-.6,2.32-.88Zm5.25-2c.46-.17.92-.36,1.37-.54l1.05-.42.7-.29.7-.29Zm-5.25,2-3.84,1.43q-12.37,4.56-25.75,8.66l.35-.1c2.05-.63,4.09-1.27,6.1-1.91l3.63-1.18,2.9-1,1.2-.4.25-.09,1.06-.36c1.79-.61,3.57-1.23,5.32-1.85l2.21-.8c1.14-.4,2.26-.82,3.38-1.23l1.6-.6,2.32-.88Zm5.25-2c.46-.17.92-.36,1.37-.54l1.05-.42.7-.29.7-.29Zm-5.25,2-3.84,1.43q-12.37,4.56-25.75,8.66l.35-.1c2.05-.63,4.09-1.27,6.1-1.91l3.63-1.18,2.9-1,1.2-.4.25-.09,1.06-.36c1.79-.61,3.57-1.23,5.32-1.85l2.21-.8c1.14-.4,2.26-.82,3.38-1.23l1.6-.6,2.32-.88Zm5.25-2c.46-.17.92-.36,1.37-.54l1.05-.42.7-.29.7-.29Zm-5.25,2-3.84,1.43q-12.37,4.56-25.75,8.66l.35-.1c2.05-.63,4.09-1.27,6.1-1.91l3.63-1.18,2.9-1,1.2-.4.25-.09,1.06-.36c1.79-.61,3.57-1.23,5.32-1.85l2.21-.8c1.14-.4,2.26-.82,3.38-1.23l1.6-.6,2.32-.88Zm5.25-2c.46-.17.92-.36,1.37-.54l1.05-.42.7-.29.7-.29Zm-5.25,2-3.84,1.43q-12.37,4.56-25.75,8.66l.35-.1c2.05-.63,4.09-1.27,6.1-1.91l3.63-1.18,2.9-1,1.2-.4.25-.09,1.06-.36c1.79-.61,3.57-1.23,5.32-1.85l2.21-.8c1.14-.4,2.26-.82,3.38-1.23l1.6-.6,2.32-.88Zm5.25-2c.46-.17.92-.36,1.37-.54l1.05-.42.7-.29.7-.29Zm-5.25,2-3.84,1.43q-12.37,4.56-25.75,8.66l.35-.1c2.05-.63,4.09-1.27,6.1-1.91l3.63-1.18,2.9-1,1.2-.4.25-.09,1.06-.36c1.79-.61,3.57-1.23,5.32-1.85l2.21-.8c1.14-.4,2.26-.82,3.38-1.23l1.6-.6,2.32-.88Zm5.25-2c.46-.17.92-.36,1.37-.54l1.05-.42.7-.29.7-.29Zm-5.25,2-3.84,1.43q-12.37,4.56-25.75,8.66l.35-.1c2.05-.63,4.09-1.27,6.1-1.91l3.63-1.18,2.9-1,1.2-.4.25-.09,1.06-.36c1.79-.61,3.57-1.23,5.32-1.85l2.21-.8c1.14-.4,2.26-.82,3.38-1.23l1.6-.6,2.32-.88Zm5.25-2c.46-.17.92-.36,1.37-.54l1.05-.42.7-.29.7-.29Zm-5.25,2-3.84,1.43q-12.37,4.56-25.75,8.66l.35-.1c2.05-.63,4.09-1.27,6.1-1.91l3.63-1.18,2.9-1,1.2-.4.25-.09,1.06-.36c1.79-.61,3.57-1.23,5.32-1.85l2.21-.8c1.14-.4,2.26-.82,3.38-1.23l1.6-.6,2.32-.88Zm5.25-2c.46-.17.92-.36,1.37-.54l1.05-.42.7-.29.7-.29Zm-5.25,2-3.84,1.43q-12.37,4.56-25.75,8.66l.35-.1c2.05-.63,4.09-1.27,6.1-1.91l3.63-1.18,2.9-1,1.2-.4.25-.09,1.06-.36c1.79-.61,3.57-1.23,5.32-1.85l2.21-.8c1.14-.4,2.26-.82,3.38-1.23l1.6-.6,2.32-.88Zm5.25-2c.46-.17.92-.36,1.37-.54l1.05-.42.7-.29.7-.29Zm-5.25,2-3.84,1.43q-12.37,4.56-25.75,8.66l.35-.1c2.05-.63,4.09-1.27,6.1-1.91l3.63-1.18,2.9-1,1.2-.4.25-.09,1.06-.36c1.79-.61,3.57-1.23,5.32-1.85l2.21-.8c1.14-.4,2.26-.82,3.38-1.23l1.6-.6,2.32-.88Zm5.25-2c.46-.17.92-.36,1.37-.54l1.05-.42.7-.29.7-.29Zm-5.25,2-3.84,1.43q-12.37,4.56-25.75,8.66l.35-.1c2.05-.63,4.09-1.27,6.1-1.91l3.63-1.18,2.9-1,1.2-.4.25-.09,1.06-.36c1.79-.61,3.57-1.23,5.32-1.85l2.21-.8c1.14-.4,2.26-.82,3.38-1.23l1.6-.6,2.32-.88Zm5.25-2c.46-.17.92-.36,1.37-.54l1.05-.42.7-.29.7-.29Zm-5.25,2-3.84,1.43q-12.37,4.56-25.75,8.66l.35-.1c2.05-.63,4.09-1.27,6.1-1.91l3.63-1.18,2.9-1,1.2-.4.25-.09,1.06-.36c1.79-.61,3.57-1.23,5.32-1.85l2.21-.8c1.14-.4,2.26-.82,3.38-1.23l1.6-.6,2.32-.88Zm5.25-2c.46-.17.92-.36,1.37-.54l1.05-.42.7-.29.7-.29Zm-5.25,2-3.84,1.43q-12.37,4.56-25.75,8.66l.35-.1c2.05-.63,4.09-1.27,6.1-1.91l3.63-1.18,2.9-1,1.2-.4.25-.09,1.06-.36c1.79-.61,3.57-1.23,5.32-1.85l2.21-.8c1.14-.4,2.26-.82,3.38-1.23l1.6-.6,2.32-.88Zm-247.78,42h0q-11.57.3-23.25.35,11.84,0,23.25-.34h0l.59,0Z" style="fill: #c29c2f; fill-opacity: 1;"></path><path d="M611.89,770.13h0l3.09-.35ZM819,713.71l-.91.5c.39-.2.77-.4,1.15-.63Zm-17.19,8.81-1.22.58c.81-.37,1.62-.75,2.43-1.15ZM740,763.82l1.77-.5.22-.07Zm-29.52-10.4h0l.09,0Z" style="fill: #c29c2f; fill-opacity: 1;"></path><path d="M577.57,773.31l1.95-.14L582,773Zm0,0,1.95-.14L582,773Zm0,0,1.95-.14L582,773Zm-22.77,1.44-1.58.08,1.32-.06,1.83-.1ZM532,793.28h.27l1.34,0Zm22.83-18.53-1.58.08-.57,0-1.52.07H551l1.67-.07,1.85-.1,1.83-.1Zm17.58,16.55.38,0,1.19-.09Zm37.64-21c-1.74.2-3.48.38-5.24.56l-.54.06-4.24.42c-3.23.32-6.47.62-9.74.9l-.43,0-4.45.38-2.25.18L582,773l-4.43.34-.74.05-.76.06-1,.08q3-.19,5.93-.42,4.71-.35,9.39-.75,10.82-.93,21.43-2.11l.08-.08Zm48.71-6.6-.17,0,.21,0Zm225.15-113c-.09.22-.19.45-.29.67.11-.22.21-.45.3-.67ZM550.35,775h-.2a.88.88,0,0,0,.28,0Zm-23.1.86h0l.59,0Zm335-93.86h0a6.08,6.08,0,0,1-.44.44c-.39.4-.79.79-1.2,1.18l-.07.07-.08.08-1.17,1.11L858,686.12l-.31.29h.12c1.83-1.71,3.61-3.44,5.29-5.22ZM833.33,725.7l.35-.2,2.29-1.37Zm-14.33-12-.91.5c.39-.2.77-.4,1.15-.63Zm-17.19,8.81L798.64,724l2-.9c.81-.37,1.62-.75,2.43-1.15ZM775,733.86l-1.59.61,2.32-.88Zm-1.63,19.26.14,0,.15-.06ZM746.34,762h0l1-.3Zm-12.83,3.65-3.83,1,3.82-1,.28-.08Zm-8.78,2.32.83-.21,3.58-.94Zm-14.2-14.54h-.09l.09,0h0Zm-2.26.53-2.17.51,1.61-.37,1-.24A3.63,3.63,0,0,0,708.27,753.93Zm-5.07,1.18,1.17-.26,1.73-.41Zm183.72-74.8-.53.71.13-.16.24-.32,0,0,0,0,0-.07c.09-.11.17-.23.25-.34C887.05,680.14,887,680.22,886.92,680.31Zm.54-.73a.13.13,0,0,0,0,.07c.1-.14.21-.28.31-.43Zm3.33-4.78h0l0,0A.1.1,0,0,1,890.79,674.8Zm.81-1.24,0,0,.74-1.19ZM554.8,774.75l-1.58.08,1.32-.06,1.83-.1Zm22.77-1.44,1.95-.14L582,773Zm-22.77,1.44-1.58.08,1.32-.06,1.83-.1Zm22.77-1.44,1.95-.14L582,773Zm0,0,1.95-.14L582,773Z" style="fill: #c29c2f; fill-opacity: 1;"></path><path d="M869.41,699.45l-.26.24.26-.23.06-.06ZM862.27,682h0a6.08,6.08,0,0,1-.44.44c-.39.4-.79.79-1.2,1.18l-.07.07-.08.08-1.17,1.11L858,686.12l-.31.29h.12c1.83-1.71,3.61-3.44,5.29-5.22ZM833.33,725.7l.35-.2,2.29-1.37Zm-14.33-12-.91.5c.39-.2.77-.4,1.15-.63Zm-17.19,8.81L798.64,724l2-.9c.81-.37,1.62-.75,2.43-1.15ZM775,733.86l-1.59.61,2.32-.88Zm-1.63,19.26-.13,0,.27-.09.15-.06ZM746.34,762h0l1-.3Zm-12.83,3.65-3.83,1,3.82-1,.28-.08Zm-8.78,2.32.83-.21,3.58-.94Zm-14.2-14.54h-.09l.09,0h0Zm-2.26.53-2.17.51,1.61-.37,1-.24A3.63,3.63,0,0,0,708.27,753.93Zm-5.07,1.18,1.17-.26,1.73-.41ZM532,793.28h-.06q-12.79.38-25.75.46c3.58,0,7.14,0,10.66-.1l3.89-.07q5.82-.11,11.53-.29l1.34,0ZM550.35,775h-.2a.88.88,0,0,0,.28,0Zm4.45-.22-1.58.08-.57,0-1.52.07H551l1.67-.07,1.85-.1,1.83-.1Zm10.06-.58,1-.06.21,0Zm7.52,17.13.38,0,1.19-.09Zm39.51-21.17c-.62.08-1.25.15-1.87.21l-5.24.56-.54.06-4.24.42c-3.23.32-6.47.62-9.74.9l-.43,0-4.45.38-2.25.18L582,773l-2.48.2-1.95.14-.74.05-.76.06-1,.08q3-.19,5.93-.42,4.71-.35,9.39-.75,10.82-.93,21.43-2.11l.08-.08,3.09-.35Zm-45.73,4h.25l2-.13Zm92.57-10.35-.17,0,.21,0Zm225.16-113H884c.4-.92.78-1.86,1.12-2.8C884.7,648.92,884.31,649.86,883.89,650.79Zm2.5,30.23.13-.16.24-.32,0,0,0,0,0-.07,0-.08Zm1.47-41.52a.06.06,0,0,1,0,0l-.09.37c0-.15.07-.29.12-.44a.06.06,0,0,1,0,0l.06-.24A1.81,1.81,0,0,1,887.86,639.5Zm1.73-8.44c-.07.52-.15,1.05-.24,1.57.1-.6.2-1.2.28-1.81A2,2,0,0,1,889.59,631.06ZM908,614.37h0c0,1,0,2,0,3v-.52l.07-2.5ZM435.66,791.89l0,0,4.42.2Z" style="fill: #c29c2f; fill-opacity: 1;"></path><path d="M869.15,699.69l.26-.23h0ZM862.27,682h0a6.08,6.08,0,0,1-.44.44c-.39.4-.79.79-1.2,1.18l-.07.07-.08.08-1.17,1.11L858,686.12l-.31.29h.12c1.83-1.71,3.61-3.44,5.29-5.22ZM833.33,725.7l.35-.2,2.29-1.37Zm-14.33-12-.91.5c.39-.2.77-.4,1.15-.63Zm-17.19,8.81L798.64,724l2-.9c.81-.37,1.62-.75,2.43-1.15ZM775,733.86l-1.59.61,2.32-.88Zm-35.06,30,1.77-.5.22-.07Zm-10.29,2.83,3.82-1h0Zm-4.95,1.29.83-.21,3.58-.94Zm-14.2-14.54h-.09l.09,0h0Zm-7.33,1.71,1.17-.26,1.73-.41ZM532,793.28h-.06q-12.79.38-25.75.46c3.58,0,7.14,0,10.66-.1l3.89-.07q5.82-.11,11.53-.29l1.34,0ZM550.35,775h-.2a.88.88,0,0,0,.28,0Zm2.87-.14-.57,0-1.52.07H551l1.67-.07,1.85-.1Zm11.64-.66,1-.06.21,0Zm7.52,17.13.38,0,1.19-.09Zm39.51-21.17c-.62.08-1.25.15-1.87.21l-5.24.56-.54.06-4.24.42c-3.23.32-6.47.62-9.74.9l-.43,0-4.45.38-2.25.18L582,773l-2.48.2-1.95.14-.74.05-.76.06-1,.08q3-.19,5.93-.42,4.71-.35,9.39-.75,10.82-.93,21.43-2.11l.08-.08,3.09-.35Zm-45.73,4h.25l2-.13Zm92.57-10.35-.17,0,.21,0Zm226-115c-.14.34-.28.68-.43,1s-.28.67-.43,1-.19.45-.29.67c.11-.22.21-.45.3-.67H884c.4-.92.78-1.86,1.12-2.8.08-.2.15-.4.22-.59C885.11,647.85,884.93,648.31,884.74,648.77Zm3.12-9.27a.06.06,0,0,1,0,0l-.09.37c0-.15.07-.29.12-.44Zm.46-1.84a1.44,1.44,0,0,1-.05.24c.05-.16.08-.31.12-.47A2,2,0,0,1,888.32,637.66Zm1.27-6.6c-.07.52-.15,1.05-.24,1.57.1-.6.2-1.2.28-1.81A2,2,0,0,1,889.59,631.06ZM908.06,617v-.11c0-.84,0-1.67,0-2.51q0-4.18-.19-8.37.14,4.17.18,8.37c0,1,0,2,0,3v0l-.14,5.26c0,.18,0,.35,0,.53.07-.56.12-1.1.14-1.61,0,0,0,0,0-.05.05-.84.05-1.6.05-2.27S908.08,617.75,908.06,617Zm-442.6,158.6h0l4.29.13Z" style="fill: #c29c2f; fill-opacity: 1;"></path><path d="M462.42,568.19q-12,23.63-22.89,50.71l1.82,1.16a320.43,320.43,0,0,1,22-51.21Zm0,0q-12,23.63-22.89,50.71l1.82,1.16a320.43,320.43,0,0,1,22-51.21Zm0,0q-12,23.63-22.89,50.71l1.82,1.16a320.43,320.43,0,0,1,22-51.21Zm0,0q-12,23.63-22.89,50.71l1.82,1.16a320.43,320.43,0,0,1,22-51.21Zm0,0q-12,23.63-22.89,50.71l1.82,1.16a320.43,320.43,0,0,1,22-51.21Zm0,0q-12,23.63-22.89,50.71l1.82,1.16a320.43,320.43,0,0,1,22-51.21Zm0,0q-12,23.63-22.89,50.71l1.82,1.16a320.43,320.43,0,0,1,22-51.21Zm0,0q-12,23.63-22.89,50.71l1.82,1.16a320.43,320.43,0,0,1,22-51.21Zm0,0q-12,23.63-22.89,50.71l1.82,1.16a320.43,320.43,0,0,1,22-51.21Zm0,0q-12,23.63-22.89,50.71l1.82,1.16a320.43,320.43,0,0,1,22-51.21Zm0,0q-12,23.63-22.89,50.71l1.82,1.16a320.43,320.43,0,0,1,22-51.21Zm0,0q-12,23.63-22.89,50.71l1.82,1.16a320.43,320.43,0,0,1,22-51.21Zm0,0q-12,23.63-22.89,50.71l1.82,1.16a320.43,320.43,0,0,1,22-51.21Zm0,0q-12,23.63-22.89,50.71l1.82,1.16a320.43,320.43,0,0,1,22-51.21Zm0,0q-12,23.63-22.89,50.71l1.82,1.16a320.43,320.43,0,0,1,22-51.21Zm0,0q-12,23.63-22.89,50.71l1.82,1.16a320.43,320.43,0,0,1,22-51.21Zm0,0q-12,23.63-22.89,50.71l1.82,1.16a320.43,320.43,0,0,1,22-51.21Zm0,0q-12,23.63-22.89,50.71l1.82,1.16a320.43,320.43,0,0,1,22-51.21Zm0,0q-12,23.63-22.89,50.71l1.82,1.16a320.43,320.43,0,0,1,22-51.21Zm0,0q-12,23.63-22.89,50.71l1.82,1.16a320.43,320.43,0,0,1,22-51.21Zm0,0q-12,23.63-22.89,50.71l1.82,1.16a320.43,320.43,0,0,1,22-51.21Zm0,0q-12,23.63-22.89,50.71l1.82,1.16a320.43,320.43,0,0,1,22-51.21Zm0,0q-12,23.63-22.89,50.71l1.82,1.16a320.43,320.43,0,0,1,22-51.21Zm0,0q-12,23.63-22.89,50.71l1.82,1.16a320.43,320.43,0,0,1,22-51.21Zm0,0q-12,23.63-22.89,50.71l1.82,1.16a320.43,320.43,0,0,1,22-51.21Zm0,0q-12,23.63-22.89,50.71l1.82,1.16a320.43,320.43,0,0,1,22-51.21Zm0,0q-12,23.63-22.89,50.71l1.82,1.16a320.43,320.43,0,0,1,22-51.21Zm0,0q-12,23.63-22.89,50.71l1.82,1.16a320.43,320.43,0,0,1,22-51.21Zm0,0q-12,23.63-22.89,50.71l1.82,1.16a320.43,320.43,0,0,1,22-51.21Zm0,0q-12,23.63-22.89,50.71l1.82,1.16a320.43,320.43,0,0,1,22-51.21Zm0,0q-12,23.63-22.89,50.71l1.82,1.16a320.43,320.43,0,0,1,22-51.21Z" style="fill: #c29c2f; fill-opacity: 1;"></path><path d="M908,614.37q0-4.2-.18-8.37c-.05-1.47-.11-2.93-.17-4.4q-.07-1.85-.18-3.69-.46-9.6-1.41-19.13-1.55-15.84-4.31-31.44-1.86-10.47-4.26-20.8a399.93,399.93,0,0,0-12-41.66q-4.37-12.53-9.56-24.82c-.31-.74-.63-1.48-.95-2.21A406,406,0,0,0,807.79,351c-.54-.64-1.1-1.28-1.66-1.91-2.16-2.45-4.34-4.87-6.57-7.27q-5.5-6-11.27-11.73l-2.24-2.22a409.36,409.36,0,0,0-57.88-47.47q-7.47-5.07-15.18-9.79a407.06,407.06,0,0,0-54.68-28.15q-3.43-1.45-6.88-2.83-9.3-3.75-18.76-7a402.84,402.84,0,0,0-88.56-19.86q-11-1.22-22.05-1.8-11.41-.64-22.93-.64A409,409,0,0,0,403.2,221.6q-10.56,2.53-21,5.65a409.09,409.09,0,0,0-115.49,55.43q-8.12,5.61-15.94,11.61a414.37,414.37,0,0,0-73.52,72.63q-5.94,7.54-11.49,15.35A406.58,406.58,0,0,0,123.68,457c-.45,1-.89,2-1.33,3.08q-3.18,7.53-6,15.15a406.28,406.28,0,0,0-26.09,144c0,55.22,45.23,101,130.79,132.56,39.47,14.53,86.22,25.56,137.43,32.65L370.94,786c21.86,2.74,43.58,4.71,64.72,5.89l4.4.24.39,0,9.22.42,4.92.21,4.9.19,4.89.17h.15q5.6.2,11.15.32,6.42.15,12.77.23l6.23,0h11.48q12.94-.07,25.75-.46H532l1.61,0h.23l.88,0,3.06-.11,5.49-.21,1.64-.07h.21c2.44-.1,4.88-.21,7.3-.33l3.94-.2,6.1-.34.39,0,6.17-.38c.89,0,1.77-.11,2.66-.18l.73-.05,1.57-.11h.22l1.43-.1.35,0,1.5-.11,5.09-.38c1.6-.12,3.2-.25,4.79-.39.39,0,.77-.06,1.15-.09,2.22-.18,4.44-.38,6.65-.58l6.6-.62c2.76-.27,5.51-.56,8.24-.85l2-.21.75-.08,4.29-.49q3.43-.39,6.84-.81a.11.11,0,0,0,.07,0,806.18,806.18,0,0,0,85.41-14.71l-.09,0,2-.47q5.13-1.2,10.17-2.47l1.22-.31h0l.3-.08,1.78-.45,4.41-1.15.54-.14,3.83-1,.27-.07,4.05-1.12,1.09-.31,1.05-.3,2-.57.14,0,1.24-.36,3-.87h0l1-.29,2-.59,2.25-.68q2.87-.88,5.69-1.79l.67-.22.06,0,.29-.09.2-.07.1,0h.05l.13,0h0l.1,0,.1,0,.13,0,.1,0,.83-.27,2.79-.92,2-.67,2-.68,2.57-.89,1.38-.48.59-.21,1.13-.4.33-.12.37-.13.11,0,.13,0,.29-.1,0,0,.07,0,.11,0,.71-.25h0l1.45-.53,2-.74a3.25,3.25,0,0,0,.4-.15c.47-.17.94-.34,1.41-.53l.81-.3.77-.29.81-.31.55-.21.32-.12.44-.17,2.2-.86.12-.05,1.15-.46.26-.1.08,0,.66-.26.75-.3.39-.16.53-.21c2.45-1,4.86-2,7.24-3l3.54-1.53h0L804,740.8h0l.58-.26.06,0,.54-.24.1,0,2.14-1,3.38-1.6,0,0,1.67-.8,1.65-.8c1.1-.54,2.19-1.08,3.27-1.63l0,0,1-.51c.41-.2.81-.41,1.21-.62s.68-.34,1-.52c1.06-.55,2.11-1.11,3.16-1.67l0,0c1-.51,1.91-1,2.85-1.55h0c1.11-.61,2.2-1.22,3.29-1.84l0,0c.66-.37,1.31-.74,2-1.12l1.06-.62.28-.16,2.64-1.57,0,0,.9-.55.22-.13,1.74-1.06,0,0,2.8-1.76,0,0,.15-.09.17-.11c.82-.52,1.62-1.05,2.42-1.58s1.83-1.21,2.73-1.83c.69-.47,1.38-.94,2.06-1.42l.25-.18.1-.07.26-.17.05,0c.77-.54,1.53-1.09,2.29-1.64l.27-.19,0,0,.54-.4c.68-.49,1.35-1,2-1.49,1.66-1.24,3.29-2.5,4.87-3.77l.06,0,1.36-1.1.12-.1.9-.74c1.54-1.28,3.05-2.57,4.51-3.87l.12-.1c.71-.62,1.41-1.25,2.1-1.87l.26-.24.06-.05.22-.2,1.44-1.34.68-.64h0l0,0,.07-.07.46-.44,1.15-1.11.61-.6c.76-.76,1.51-1.52,2.25-2.29s1.45-1.52,2.16-2.28l.47-.52c.2-.21.39-.43.58-.64s.32-.35.47-.53l.12-.14.46-.5h0v0l.59-.68.58-.68.23-.28.47-.54v0l0-.05,0,0,0,0,.1-.13.21-.26.29-.35q.27-.32.51-.63l.22-.26a2,2,0,0,0,.19-.24l.14-.18c.39-.48.78-1,1.15-1.45l.1-.12.8-1.05.53-.71c.06-.09.13-.17.2-.26s.16-.23.26-.35l0-.05a.13.13,0,0,1,0-.07l.27-.36.27-.37.3-.42.46-.64.14-.21.19-.27,0,0L890,676c.09-.12.17-.25.26-.38l.36-.54a.86.86,0,0,0,.07-.1l0-.07,0-.07,0-.07a.1.1,0,0,0,0,0c.26-.39.51-.79.77-1.19l.78-1.24c.26-.41.51-.82.76-1.24l.75-1.26.24-.42c.48-.83,1-1.66,1.4-2.49l0,0,.12-.22.11-.21c.18-.34.37-.68.54-1,.33-.63.65-1.27,1-1.91l.09-.18c.38-.74.75-1.48,1.1-2.22a.18.18,0,0,0,0-.09c.37-.76.73-1.53,1.07-2.3a1.42,1.42,0,0,0,.08-.18c.36-.8.71-1.6,1-2.4q1-2.4,1.86-4.83c.12-.33.23-.67.34-1s.17-.48.25-.72.21-.64.31-1q1.18-3.68,2-7.41c.18-.8.36-1.59.52-2.39a.5.5,0,0,0,0-.12c.1-.48.2-1,.28-1.43s.16-.83.23-1.24c0,0,0-.09,0-.13l.06-.36c.12-.67.22-1.34.32-2,0,0,0,0,0-.08,0-.35.1-.7.14-1.06s0-.41.08-.62.08-.61.12-.92c.09-.81.17-1.61.24-2.42,0-.36.07-.71.09-1.06s.05-.72.07-1.07,0-.43,0-.65q.06-1,.09-1.95c0-.16,0-.32,0-.48s0-.35,0-.53l.14-5.26v0C908.05,616.39,908,615.38,908,614.37Zm-20.37-42.43c-71.92-27.56-135.35-62.65-184.48-102.55-25.83-21-46.59-42.4-62-63.95a524.81,524.81,0,0,1,52.89-21.71c12.39,28.35,36.05,57.2,70.13,84.89C796.79,495.11,837,519,882.28,539.06Q885.67,555.35,887.66,571.94ZM433.8,648.6c.52-2.7,1.31-6.42,2.46-11q22.31,14,45.86,27.41-9.4,5.12-18.25,10.51Q449,661.14,433.8,648.6Zm14.82,36.66q-6.5,4.37-12.63,8.87l6.85-14.29Q445.75,682.51,448.62,685.26Zm-7.27-65.2-1.82-1.16q10.94-27.12,22.89-50.71l.92.66a1081.81,1081.81,0,0,0,95.95,61.48,601.86,601.86,0,0,0-58.57,25Q470,638.12,441.35,620.06Zm30.74-66.57c5.14-8.51,10.93-17.26,17.46-26.12q8.24-11.18,17.39-21.75,6.82,5.83,14,11.65c37.85,30.74,81.23,59.59,129,86-23.86,5.64-46.75,12.11-68.52,19.33A1079.84,1079.84,0,0,1,472.09,553.49ZM532,503.63q-6.76-5.5-13.23-11a380.32,380.32,0,0,1,43.07-38.73A501.21,501.21,0,0,0,611,499.25c38.76,31.49,84.51,60.57,135.46,86.42q-36.12,4.76-70.22,11.78C621.78,568.72,573.41,537.27,532,503.63Zm90.1-18a485.22,485.22,0,0,1-46-42.26q11-7.78,22.71-15,12.8-7.84,26.42-15C641.64,436.84,664,460.24,692.1,483,736,518.72,791,550.62,853,576.91q-37.85,1.29-74.28,5C719.09,553.78,666,521.25,622.09,485.61ZM844.51,435c-17.06-14.73-29.75-29.76-37.74-44.75A79.43,79.43,0,0,1,798.38,367,388.83,388.83,0,0,1,844.51,435Zm-5.17,18.59q10.1,8.21,21.47,15.93a385.84,385.84,0,0,1,16.31,47.88C838.3,499.2,803.74,478.1,775.27,455c-27.81-22.59-48.17-45.79-60.54-69q-2.1-3.94-3.87-7.85a648.74,648.74,0,0,1,69.07-17.64C781.5,390.88,802,423.24,839.34,453.59ZM227.08,735.29c-17.61-6.48-36.31-14.67-53.55-24.81l136-70.09,17.83-9.18,23-11.87c.32-2.22.59-4.55.82-6.93.39-4.11.64-8.36.8-12.42.1-2.47.17-4.87.21-7.11-16.16-9-32-16.72-47.27-23.38a104.8,104.8,0,0,0,.93,19.56q16.28,7.41,31.95,15.87l1,.57L310.8,620l-17.69,9.12L156.55,699.46c-21.77-15.68-39.21-35.11-45.86-58.91l144.16-39.29,21.51-5.87,15.17-4.13c.31-2.65.55-5.43.72-8.19.22-3.57.35-7.11.41-10.32s.08-6.21.06-8.44q-4.19-1.71-8.29-3.31a29.78,29.78,0,0,1-18.14-6.72h0c-7.33-2.58-14.43-4.9-21.25-7a89.83,89.83,0,0,0,1.54,18.89Q262,571.12,277.16,577l-18.54,5-21.2,5.78L107.89,623.09c-.07-1.27-.1-2.56-.1-3.86a395.39,395.39,0,0,1,2.27-42.41l100.2-11.08,24.08-2.66,0-.23c0-.13,0-.27,0-.41.64-5.84.82-12.34.85-17.14,0-.31,0-.61,0-.9-2.13-.61-4.22-1.2-6.29-1.76-9.13-2.49-17.89-4.63-26.17-6.47q-6.28-1.38-12.2-2.55a80,80,0,0,0,2.89,16.29c0,.11,0,.17,0,.19s0,0,0,0l-.09,0-.2,0h-.13c-.23,0-.55,0-1,0h-1.09c-2.42,0-6.11-.17-8.71-.27l4.07.78-74,8.18q1.26-8.22,2.88-16.36c10.19,0,33.27,1.25,64.38,6.91,1.23-1.34,2-4.42,2.53-8.09.41-2.88.65-6.12.77-9.17-4.59-.84-9-1.57-13.16-2.22-10.17-1.58-19-2.64-26.22-3.35-10.9-1.07-19.14-1.45-24.39-1.58q4.38-17.79,10.48-35.13,3.22-9.24,7-18.35.93-2.31,1.91-4.62a389.33,389.33,0,0,1,37.24-68.23q5.34-7.83,11.09-15.4a396,396,0,0,1,68.22-70q7.48-6,15.23-11.58a389.58,389.58,0,0,1,76.49-43q14.83-6.27,30.05-11.27,6.84-2.26,13.73-4.24,2.84-.84,5.68-1.6a390.51,390.51,0,0,1,102.86-13.64q5.31,0,10.6.14,10.29.27,20.5,1.07a387,387,0,0,1,89.16,17.6q9,2.91,17.88,6.27,7.14,2.68,14.19,5.67a391.82,391.82,0,0,1,50.09,25.56q7.55,4.56,14.86,9.47a391.48,391.48,0,0,1,59.45,48.84l.72.73a669.14,669.14,0,0,0-71.76,18.38q-8.48,2.67-16.73,5.57a543.85,543.85,0,0,0-56.68,23.44q-8,3.87-15.79,8-13.73,7.25-26.65,15.2t-24.8,16.44Q557,435.38,550,440.77A399.69,399.69,0,0,0,505.55,481q-6.06,6.39-11.8,13-10,11.53-19,23.8c-6.27,8.56-11.88,17-16.88,25.21-3.19,5.22-6.14,10.35-8.85,15.34a338.06,338.06,0,0,0-23,51.9c-.05.13-.1.26-.14.39-2.15,6.29-3.88,12-5.26,17-.86,3.17-1.59,6.06-2.21,8.65a537.92,537.92,0,0,0-51.33-34.86A150,150,0,0,0,370,623.82q8.13,5.17,16.05,10.64l-22.2,20.27L350.4,667l-87.51,79.89Q244.13,741.55,227.08,735.29Zm140,32.6a761.28,761.28,0,0,1-84.05-15.61l82.86-75.64,13.52-12.34,21.23-19.38q14.64,10.88,28.49,22.77l-9.63,20.08-7.62,15.88-8.71,18.16C388.36,736.38,376.22,751.78,367.13,767.89ZM830.41,707l-.52.33c-.4.26-.8.51-1.21.75l-.39.24-.09.06-.12.08-.18.11-.07,0-.29.17c-.38.24-.77.47-1.16.7l-1.09.65c-.56.34-1.13.67-1.7,1l-.49.29-.9.52-.77.44-1.25.71-.18.1,0,0-.71.4c-.38.23-.76.43-1.15.63l-.1,0-.12.07q-2.85,1.57-5.81,3.11l-1.79.92-.56.29-1.28.65-.22.11-1.08.53c-.28.15-.57.29-.85.42l-.85.42-.88.43-.77.37L803,722c-.81.4-1.62.78-2.43,1.15l-2,.9-3,1.37c-.83.38-1.67.75-2.52,1.12l-1.16.51-1,.41-.75.32-2.28,1-1.79.75-1.69.69a2.5,2.5,0,0,1-.38.15l-.7.29-.7.29-1.05.42c-.45.18-.91.37-1.37.54h0c-.45.19-.91.37-1.37.54l-.15.06h-.06l-.05,0-.18.07-.32.13h0l-.77.3-.13,0-.12,0-.19.07-.07,0-.1,0-.2.08-.14.05-.12,0-.5.19-2.32.88-1.6.6c-1.12.41-2.24.83-3.38,1.23l-2.21.8c-1.75.62-3.53,1.24-5.32,1.85l-1.06.36-.25.09-1.2.4-2.9,1-3.63,1.18c-2,.64-4,1.28-6.1,1.91l-.35.1-.06,0-.54.16-.71.22-.22.07-3,.89-1.22.36-.77.23-1.08.31-2,.57h0l-3.58,1-3.9,1.07-1.24.34-.49.13-.11,0-.19,0-.42.11-.3.08-.24.06-.32.08-.47.13-1.22.32c-1,.26-1.93.51-2.9.75l-.31.08-1,.27-4.33,1.08-1.07.26-1.62.39-1.08.27-.26.06-.09,0h-.14l-.09,0h0l-.23.05-.57.14-.73.17h0l-.09,0h-.06l-1,.24-1.61.37-1.73.41-1.17.26-1.17.26-.08,0-.25.06h0l-2,.45L699,756l-1.4.31-.43.09c-1.44.32-2.88.63-4.33.93l-.76.16-4,.82-1.57.32-1.45.29-.12,0-.2,0-.62.13-.34.07-.29,0-.14,0-1.41.28-.12,0h0l-2.12.4-.19,0-1.62.31-2.33.44-2.34.43c-2.38.44-4.77.86-7.18,1.28l-2.71.46-2.07.35-.67.11-1.05.18-.21,0-.24,0-.16,0-.17,0-.21,0-.15,0-.16,0-.43.07h0l-1,.15-.25,0h-.27l-.25,0-.12,0-.12,0h0l-.07,0-.13,0h-.1l-.14,0h-.27l-4.91.77-.64.1-1.06.16-.8.12-2.42.36L644,766a215.57,215.57,0,0,1,19.64-12.5c6.5-3.68,13.41-7.2,20.67-10.53a388.47,388.47,0,0,1,65.32-22.72c10.09-2.6,20.53-4.93,31.25-7,16.41-3.13,33.51-5.58,51.09-7.31ZM873,669.6l-.17.22c-.31.43-.64.86-1,1.29l-.59.76-.41.52-.27.34-.07.09c-.35.44-.71.87-1.08,1.31a3.31,3.31,0,0,1-.25.3l-.14.18h0l0,0,0,0-.07.09,0,0-.52.6c-.27.32-.55.65-.84,1l-.5.57c-.11.13-.23.27-.36.4l-.38.42,0,0-.48.53-.34.37L864.24,680l-.48.5c-.17.19-.36.38-.54.56l-.17.18c-1.68,1.78-3.46,3.51-5.29,5.22h-.14q-8.6.47-17.11,1.17a575.61,575.61,0,0,0-89.76,14.28q-14.36,3.51-27.91,7.73-6,1.89-11.91,3.9a345.4,345.4,0,0,0-48.26,20.59q-10.06,5.26-19,11a187.48,187.48,0,0,0-31.74,25l3.08-.34-3.09.35-.08.08q-10.6,1.17-21.43,2.11-4.68.4-9.39.75-3,.23-5.93.42l-2.86.2-3.75.25-2,.13h-.29l-.21,0-1,.06-1.06.06-2.33.14-.64,0-1.54.09-.27,0-.57,0h-.62l-.32,0h-.15l-.39,0-.49,0h-.11l-1.83.1-1.85.1-1.67.07-.42,0h-.17a.88.88,0,0,1-.28,0h.2c.25-.28.49-.56.74-.83a166.11,166.11,0,0,1,13.38-13.25c12.39-11,27.43-21.44,44.75-31q9.57-5.29,20-10.24a422.08,422.08,0,0,1,39-16q11.1-3.95,22.69-7.46,13.29-4,27.17-7.5A664.57,664.57,0,0,1,802,673.51q20.24-2.37,41.09-3.66,15.2-1,30.67-1.32Zm16.36-37c0,.1,0,.2-.05.3s-.07.41-.11.62c-.08.47-.17.93-.27,1.4a3.43,3.43,0,0,1-.09.44c0,.12,0,.24-.07.36s-.07.35-.12.53a2.59,2.59,0,0,1-.09.4,3,3,0,0,1-.09.43c0,.11-.05.21-.07.32s-.07.31-.12.47c-.1.44-.21.86-.32,1.29l-.06.24a.06.06,0,0,0,0,0c0,.15-.08.29-.12.44v0c0,.12-.06.24-.1.36a1,1,0,0,1-.06.22.7.7,0,0,1-.06.19,2.68,2.68,0,0,1-.07.27v0l-.12.41c0,.12-.07.23-.11.35s-.08.3-.13.45l-.08.26c-.13.44-.27.87-.42,1.3a2.47,2.47,0,0,1-.1.29c-.1.33-.21.66-.33,1s-.17.47-.25.7l-.26.72a.36.36,0,0,0,0,.11c-.11.27-.21.54-.32.82s-.14.39-.22.59c-.34.94-.72,1.88-1.12,2.8h-.06c-.09.22-.19.45-.3.67.1-.22.2-.45.29-.67-27.17.29-53.76,1.93-79.44,4.78q-18,2-35.41,4.81a640.33,640.33,0,0,0-76.9,17.06q-12.92,3.73-25.17,7.95a430.25,430.25,0,0,0-58.48,24.79q-9.84,5.12-18.87,10.59A241.15,241.15,0,0,0,547.07,753a170.21,170.21,0,0,0-12.61,13.52q-3.86,4.6-7.21,9.35h.59l-.59,0h0q-11.41.31-23.25.34c-5,0-10.14,0-15.29-.06h-.85l-5.43-.09-5.88-.11-6.57-.17h-.23l-4.29-.13h0a179.25,179.25,0,0,1,26.28-29.66q6.86-6.3,14.64-12.37a327.89,327.89,0,0,1,47.12-30.34q9.46-5.09,19.64-9.88,19-9,40.31-16.87,9.79-3.63,19.92-7,12.12-4,24.69-7.62a742.13,742.13,0,0,1,74.64-17.2q16-2.83,32.36-5.09c28.23-3.89,57.38-6.47,87.17-7.69q18.53-.76,37.36-.83a2,2,0,0,0,0-.24C889.55,631.43,889.45,632,889.35,632.63Zm1.09-19.15q-17.82,0-35.4.7-20.91.8-41.41,2.44c-26.82,2.17-53,5.44-78.44,9.78q-15,2.57-29.6,5.62a722.33,722.33,0,0,0-70.86,18.55q-11.87,3.78-23.33,7.93l-4,1.49a512,512,0,0,0-54,23.45q-9.69,4.93-18.74,10.14a346.12,346.12,0,0,0-29.16,18.68q-8.65,6.21-16.4,12.64-7.44,6.2-14,12.6a181.59,181.59,0,0,0-29.91,37.27c-19.2-.87-38.91-2.44-58.83-4.65,11.74-18.62,28.37-36.55,49.32-53.37Q443,710.84,451,705.12a416.46,416.46,0,0,1,49.4-29.83q9.38-4.85,19.32-9.47Q540,656.39,562.4,648q8.55-3.21,17.35-6.23,11.36-3.9,23.11-7.52,33.85-10.4,70.72-18.26,13.86-2.94,28.09-5.53,6.42-1.17,12.91-2.25,30.06-5,61.11-8.31,17.8-1.89,35.9-3.2c25.69-1.85,51.75-2.82,78-2.89q.33,4.73.54,9.49l.06,1.51q.18,4.34.24,8.68Z" style="fill: #c29c2f; fill-opacity: 1;"></path><path class="cls-2" d="M266.28,554.28c-7.33-2.58-14.43-4.9-21.25-7,.05-1.41.14-2.84.28-4.27a25.1,25.1,0,0,0,13.8,4.11c.27,0,.54,0,.8,0A29.85,29.85,0,0,0,266.28,554.28Z" style="fill: #f8f5ee; fill-opacity: 1;"></path><path class="cls-2" d="M235.21,538.36c0,.69.07,2.95.06,6-2.13-.61-4.22-1.2-6.29-1.76-9.13-2.49-17.89-4.63-26.17-6.47q-6.28-1.38-12.2-2.55a55.42,55.42,0,0,1,0-8.34c0-.25,0-.51.06-.76A19.17,19.17,0,0,0,208,526.38a24.1,24.1,0,0,0,27.17,12Z" style="fill: #f8f5ee; fill-opacity: 1;"></path><path class="cls-2" d="M352.23,592.88c-16.16-9-32-16.72-47.27-23.38.07-1.19.16-2.39.28-3.59a31.28,31.28,0,0,0,14.67,5,36.41,36.41,0,0,0,30.54,7.74l1.79,1.35C352.29,582.57,352.34,587.25,352.23,592.88Z" style="fill: #f8f5ee; fill-opacity: 1;"></path><path class="cls-2" d="M448.62,685.26q-6.5,4.37-12.63,8.87l6.85-14.29Q445.75,682.51,448.62,685.26Z" style="fill: #f8f5ee; fill-opacity: 1;"></path><path class="cls-2" d="M559.29,630.33a601.86,601.86,0,0,0-58.57,25Q470,638.12,441.35,620.06a320.43,320.43,0,0,1,22-51.21A1081.81,1081.81,0,0,0,559.29,630.33Z" style="fill: #f8f5ee; fill-opacity: 1;"></path><path class="cls-2" d="M649.91,603.28c-23.86,5.64-46.75,12.11-68.52,19.33a1079.84,1079.84,0,0,1-109.3-69.12c5.14-8.51,10.93-17.26,17.46-26.12q8.24-11.18,17.39-21.75,6.82,5.83,14,11.65C558.76,548,602.14,576.86,649.91,603.28Z" style="fill: #f8f5ee; fill-opacity: 1;"></path><path class="cls-2" d="M186.41,550.69l-74,8.18q1.26-8.22,2.88-16.36c10.19,0,33.27,1.25,64.38,6.91a3.2,3.2,0,0,1-.39.36l3.07.13Z" style="fill: #f8f5ee; fill-opacity: 1;"></path><path class="cls-2" d="M277.16,577l-18.54,5-21.2,5.78L107.89,623.09c-.07-1.27-.1-2.56-.1-3.86a395.39,395.39,0,0,1,2.27-42.41l100.2-11.08,24.08-2.66c-.71,6.24-2,11.62-4.11,13.2,0,0,18.79.85,18.79.43,0-.09-.29-1.07-.72-2.71-.48-1.84-1.13-4.54-1.73-7.82Q262,571.12,277.16,577Z" style="fill: #f8f5ee; fill-opacity: 1;"></path><path class="cls-2" d="M338.88,605.5,310.8,620l-17.69,9.12L156.55,699.46c-21.77-15.68-39.21-35.11-45.86-58.91l144.16-39.29,21.51-5.87,15.17-4.13c-.62,5.25-1.54,10-2.92,13.07a7.65,7.65,0,0,1-2.18,3.07s3,.14,6.86.29c6.91.27,16.58.59,16.58.24a141.1,141.1,0,0,1-4-18.87q16.28,7.41,31.95,15.87Z" style="fill: #f8f5ee; fill-opacity: 1;"></path><path class="cls-2" d="M386.07,634.46l-22.2,20.27L350.4,667l-87.51,79.89q-18.76-5.37-35.81-11.63c-17.61-6.48-36.31-14.67-53.55-24.81l136-70.09,17.83-9.18,23-11.87c-1.13,7.77-2.92,14.13-5.73,16.2,0,0,28.37,1.29,28.37.65,0-.26-1.51-5-3-12.37Q378.15,629,386.07,634.46Z" style="fill: #f8f5ee; fill-opacity: 1;"></path><path class="cls-2" d="M429.18,667.69l-9.63,20.08-7.62,15.88-8.71,18.16c-14.86,14.57-27,30-36.09,46.08a761.28,761.28,0,0,1-84.05-15.61l82.86-75.64,13.52-12.34,21.23-19.38Q415.33,655.8,429.18,667.69Z" style="fill: #f8f5ee; fill-opacity: 1;"></path><path class="cls-2" d="M831.93,706l-1.52,1-.52.33c-.4.26-.8.51-1.21.75l-.39.24-.09.06-.12.08-.18.11-.07,0-.29.17c-.38.24-.77.47-1.16.7l-1.09.65c-.56.34-1.13.67-1.7,1l-.49.29-.9.52-.77.44-1.25.71-.18.1,0,0-.71.4-.24.13-.91.5-.1,0-.12.07q-2.85,1.57-5.81,3.11l-1.79.92-.56.29-1.28.65-.22.11-1.08.53c-.28.15-.57.29-.85.42l-.85.42-.88.43-.77.37L803,722l-1.21.57L798.64,724l-3,1.37c-.83.38-1.67.75-2.52,1.12l-1.16.51-1,.41-.75.32-2.28,1-1.79.75-1.69.69a2.5,2.5,0,0,1-.38.15l-3.82,1.54h0c-.45.19-.91.37-1.37.54l-.15.06h-.06l-.05,0-.18.07-.32.13h0l-.77.3-.13,0-.12,0-.19.07-.07,0-.1,0-.2.08-.14.05-.12,0-.5.19-.73.27-3.84,1.43q-12.37,4.56-25.75,8.66l-.06,0-.54.16-.71.22-.22.07-3,.89-1.22.36-.77.23-1.08.31-2,.57h0l-3.58,1-3.9,1.07-1.24.34-.49.13-.11,0-.19,0-.42.11-.3.08-.24.06-.32.08-.47.13-1.22.32c-1,.26-1.93.51-2.9.75l-.31.08-1,.27-4.33,1.08-1.07.26-1.62.39-1.08.27-.26.06-.09,0h-.24l-.23.05-.57.14-.73.17h0l-.09,0h-.06a3.63,3.63,0,0,0-.45.1l-2.17.51-2.9.67-1.17.26-.08,0-.25.06h0l-2,.45L699,756l-1.4.31-.43.09c-1.44.32-2.88.63-4.33.93l-.76.16-4,.82-1.57.32-1.45.29-.12,0-.2,0-.62.13-.34.07-.29,0-.14,0-1.41.28-.12,0h0l-2.12.4-.19,0-1.62.31-2.33.44-2.34.43c-2.38.44-4.77.86-7.18,1.28l-2.71.46-2.07.35-.67.11-1.05.18-.21,0-.24,0-.16,0-.17,0h0l-.17,0-.15,0-.16,0-.43.07h0l-1,.15-.25,0h-.27l-.25,0-.12,0-.12,0h0l-.07,0-.13,0h-.1l-.14,0h-.27l-4.91.77-.64.1-1.06.16-.8.12-2.42.36L644,766a215.57,215.57,0,0,1,19.64-12.5c6.5-3.68,13.41-7.2,20.67-10.53a388.47,388.47,0,0,1,65.32-22.72c10.09-2.6,20.53-4.93,31.25-7C797.25,710.18,814.35,707.73,831.93,706Z" style="fill: #f8f5ee; fill-opacity: 1;"></path><path class="cls-2" d="M873.77,668.53,873,669.6l-.17.22c-.31.43-.64.86-1,1.29l-.59.76-.41.52-.27.34-.07.09c-.35.44-.71.87-1.08,1.31a3.31,3.31,0,0,1-.25.3l-.14.18h0l0,0,0,0-.07.09,0,0-.52.6c-.27.32-.55.65-.84,1l-.5.57c-.11.13-.23.27-.36.4l-.38.42,0,0-.48.53-.34.37L864.24,680l-.48.5c-.17.19-.36.38-.54.56l-.17.18-.78.78h0a6.08,6.08,0,0,1-.44.44c-.39.4-.79.79-1.2,1.18l-.07.07-.08.08-1.17,1.11L858,686.12l-.31.29h0q-8.6.47-17.11,1.17a575.61,575.61,0,0,0-89.76,14.28q-14.36,3.51-27.91,7.73-6,1.89-11.91,3.9a345.4,345.4,0,0,0-48.26,20.59q-10.06,5.26-19,11a187.48,187.48,0,0,0-31.74,25c-.62.08-1.25.15-1.87.21l-5.24.56-.54.06-4.24.42c-3.23.32-6.47.62-9.74.9l-.43,0-4.45.38-2.25.18L582,773l-4.43.34-.74.05-.76.06-1,.08-2.86.2-3.75.25-2.28.14h0l-1.26.08-1.06.06-2.33.14-.64,0-1.54.09-.27,0-.57,0h-.62l-.32,0h-.15l-.39,0-.49,0h-.11l-1.57.08-1.58.08-.57,0-1.52.07H551l-.42,0h-.25c.25-.28.49-.56.74-.83a166.11,166.11,0,0,1,13.38-13.25c12.39-11,27.43-21.44,44.75-31q9.57-5.29,20-10.24a422.08,422.08,0,0,1,39-16q11.1-3.95,22.69-7.46,13.29-4,27.17-7.5A664.57,664.57,0,0,1,802,673.51q20.24-2.37,41.09-3.66Q858.3,668.89,873.77,668.53Z" style="fill: #f8f5ee; fill-opacity: 1;"></path><path class="cls-2" d="M889.59,631.06c-.07.52-.15,1.05-.24,1.57,0,.1,0,.2-.05.3s-.07.41-.11.62c-.08.47-.17.93-.27,1.4a3.43,3.43,0,0,1-.09.44c0,.12,0,.24-.07.36s-.07.35-.12.53a2.59,2.59,0,0,1-.09.4c-.07.33-.15.66-.23,1a1.44,1.44,0,0,1-.05.24c-.1.44-.21.86-.32,1.29a1.81,1.81,0,0,1-.09.31.06.06,0,0,1,0,0l-.09.37v0c0,.12-.06.24-.1.36a1,1,0,0,1-.06.22.7.7,0,0,1-.06.19,2.68,2.68,0,0,1-.07.27v0l-.12.41c0,.12-.07.23-.11.35s-.08.3-.13.45l-.08.26c-.13.44-.27.87-.42,1.3a2.47,2.47,0,0,1-.1.29c-.1.33-.21.66-.33,1s-.17.47-.25.7l-.26.72a.36.36,0,0,0,0,.11c-.11.27-.21.54-.32.82-.18.45-.36.91-.55,1.37s-.28.68-.43,1-.28.67-.43,1c-27.17.29-53.76,1.93-79.44,4.78q-18,2-35.41,4.81a640.33,640.33,0,0,0-76.9,17.06q-12.92,3.73-25.17,7.95a430.25,430.25,0,0,0-58.48,24.79q-9.84,5.12-18.87,10.59A241.15,241.15,0,0,0,547.07,753a170.21,170.21,0,0,0-12.61,13.52q-3.86,4.6-7.21,9.35h0q-11.57.3-23.25.35c-5,0-10.14,0-15.29-.06h-.85l-5.43-.09-5.88-.11-6.57-.17h-.23l-4.28-.14a179.25,179.25,0,0,1,26.28-29.66q6.86-6.3,14.64-12.37a327.89,327.89,0,0,1,47.12-30.34q9.46-5.09,19.64-9.88,19-9,40.31-16.87,9.79-3.63,19.92-7,12.12-4,24.69-7.62a742.13,742.13,0,0,1,74.64-17.2q16-2.83,32.36-5.09c28.23-3.89,57.38-6.47,87.17-7.69Q870.76,631.13,889.59,631.06Z" style="fill: #f8f5ee; fill-opacity: 1;"></path><path class="cls-2" d="M890.44,613.48q-17.82,0-35.4.7-20.91.8-41.41,2.44c-26.82,2.17-53,5.44-78.44,9.78q-15,2.57-29.6,5.62a722.33,722.33,0,0,0-70.86,18.55q-11.87,3.78-23.33,7.93l-4,1.49a512,512,0,0,0-54,23.45q-9.69,4.93-18.74,10.14a346.12,346.12,0,0,0-29.16,18.68q-8.65,6.21-16.4,12.64-7.44,6.2-14,12.6a181.59,181.59,0,0,0-29.91,37.27c-19.2-.87-38.91-2.44-58.83-4.65,11.74-18.62,28.37-36.55,49.32-53.37Q443,710.84,451,705.12a416.46,416.46,0,0,1,49.4-29.83q9.38-4.85,19.32-9.47Q540,656.39,562.4,648q8.55-3.21,17.35-6.23,11.36-3.9,23.11-7.52,33.85-10.4,70.72-18.26,13.86-2.94,28.09-5.53,6.42-1.17,12.91-2.25,30.06-5,61.11-8.31,17.8-1.89,35.9-3.2c25.69-1.85,51.75-2.82,78-2.89q.33,4.73.54,9.49l.06,1.51C890.32,607.69,890.4,610.58,890.44,613.48Z" style="fill: #f8f5ee; fill-opacity: 1;"></path><path class="cls-2" d="M844.51,435c-17.06-14.73-29.75-29.76-37.74-44.75A79.43,79.43,0,0,1,798.38,367,388.83,388.83,0,0,1,844.51,435Z" style="fill: #f8f5ee; fill-opacity: 1;"></path><path class="cls-2" d="M877.12,517.4C838.3,499.2,803.74,478.1,775.27,455c-27.81-22.59-48.17-45.79-60.54-69q-2.1-3.94-3.87-7.85a648.74,648.74,0,0,1,69.07-17.64c1.57,30.38,22.05,62.74,59.41,93.09q10.1,8.21,21.47,15.93A385.84,385.84,0,0,1,877.12,517.4Z" style="fill: #f8f5ee; fill-opacity: 1;"></path><path class="cls-2" d="M887.66,571.94c-71.92-27.56-135.35-62.65-184.48-102.55-25.83-21-46.59-42.4-62-63.95a524.81,524.81,0,0,1,52.89-21.71c12.39,28.35,36.05,57.2,70.13,84.89C796.79,495.11,837,519,882.28,539.06Q885.67,555.35,887.66,571.94Z" style="fill: #f8f5ee; fill-opacity: 1;"></path><path class="cls-2" d="M853,576.91q-37.85,1.29-74.28,5c-59.64-28.13-112.76-60.66-156.64-96.3a485.22,485.22,0,0,1-46-42.26q11-7.78,22.71-15,12.8-7.84,26.42-15C641.64,436.84,664,460.24,692.1,483,736,518.72,791,550.62,853,576.91Z" style="fill: #f8f5ee; fill-opacity: 1;"></path><path class="cls-2" d="M746.47,585.67q-36.12,4.76-70.22,11.78C621.78,568.72,573.41,537.27,532,503.63q-6.76-5.5-13.23-11a380.32,380.32,0,0,1,43.07-38.73A501.21,501.21,0,0,0,611,499.25C649.77,530.74,695.52,559.82,746.47,585.67Z" style="fill: #f8f5ee; fill-opacity: 1;"></path><path class="cls-2" d="M775.86,342.51a391.48,391.48,0,0,0-59.45-48.84q-7.32-4.92-14.86-9.47a391.82,391.82,0,0,0-50.09-25.56q-7.05-3-14.19-5.67-8.88-3.37-17.88-6.27a387,387,0,0,0-89.16-17.6q-10.2-.79-20.5-1.07-5.3-.14-10.6-.14a390.51,390.51,0,0,0-102.86,13.64q-2.85.76-5.68,1.6-6.9,2-13.73,4.24-15.19,5-30.05,11.27a389.58,389.58,0,0,0-76.49,43q-7.76,5.58-15.23,11.58a396,396,0,0,0-68.22,70q-5.76,7.56-11.09,15.4a389.33,389.33,0,0,0-37.24,68.23q-1,2.31-1.91,4.62-3.72,9.11-7,18.35-6.09,17.34-10.48,35.13c5.25.13,13.49.51,24.39,1.58,7.21.71,16,1.77,26.22,3.35,4.17.65,8.57,1.38,13.16,2.22.23-5.45.13-10.25.1-11.18a17.64,17.64,0,0,1-4.51.57,18.29,18.29,0,0,1-18.29-18.29,18,18,0,0,1,1-6,18.32,18.32,0,0,1,11-11.2,19.17,19.17,0,0,1,36.56,4.83,19.25,19.25,0,0,1,6.39,4.54,24.21,24.21,0,0,1,5.8-3.07,25.23,25.23,0,0,1,48.13,6.37,24.89,24.89,0,0,1,5.95,3.63,31.49,31.49,0,0,1,28.74-18.62A31.48,31.48,0,0,1,333.28,504a38,38,0,0,1,31.46-18.16c.34,0,.68,0,1,0a38.1,38.1,0,0,1,37.7,32.58,38.18,38.18,0,0,1,19.78,19.82h0a38.14,38.14,0,0,1-26.45,52.3,38.65,38.65,0,0,1-8.53.95,37.82,37.82,0,0,1-20.83-6.2q-.29,2.85-.39,5.66c-.15,3.57-.11,7.09.06,10.49a537.92,537.92,0,0,1,51.33,34.86c.62-2.59,1.35-5.48,2.21-8.65,1.38-5,3.11-10.75,5.26-17,0-.13.09-.26.14-.39a338.06,338.06,0,0,1,23-51.9c2.71-5,5.66-10.12,8.85-15.34,5-8.2,10.61-16.65,16.88-25.21q9-12.25,19-23.8,5.73-6.63,11.8-13A399.69,399.69,0,0,1,550,440.77q6.91-5.38,14.13-10.52,12-8.56,24.8-16.44t26.65-15.2q7.77-4.11,15.79-8a543.85,543.85,0,0,1,56.68-23.44q8.26-2.9,16.73-5.57a669.14,669.14,0,0,1,71.76-18.38ZM450.64,423.13a84.85,84.85,0,1,1-59.34-147c.53,0,1.06,0,1.59,0a84.82,84.82,0,0,1,57.75,147Z" style="fill: #f8f5ee; fill-opacity: 1;"></path><path d="M193.54,550.1s0,0,0,0l-.09,0-.2,0h-.13c-.23,0-.55,0-1,0h-1.09l1-.11,1.49-.16C193.52,550,193.54,550.08,193.54,550.1Z" style="fill: #c29c2f; fill-opacity: 1;"></path><path d="M236,562.9l-1.36.15-.27,0,0-.23c0-.13,0-.27,0-.41Z" style="fill: #c29c2f; fill-opacity: 1;"></path><path d="M392.89,276.15c-.53,0-1.06,0-1.59,0a84,84,0,0,0-17.63,2.18,84.88,84.88,0,1,0,19.22-2.2ZM440,409.06a67.28,67.28,0,1,1-48.07-115.32h1A67.25,67.25,0,0,1,440,409.06Z" style="fill: #c29c2f; fill-opacity: 1;"></path><path class="cls-2" d="M460.18,361a67.33,67.33,0,1,1-68.3-67.27h1A67.36,67.36,0,0,1,460.18,361Z" style="fill: #f8f5ee; fill-opacity: 1;"></path><path d="M330.78,508.83l-.14.32-.41-.11Z" style="fill: #c29c2f; fill-opacity: 1;"></path><path d="M275.36,502.59l-.41.14c.05-.12.1-.24.16-.36Z" style="fill: #c29c2f; fill-opacity: 1;"></path><path d="M330.78,508.83l-.14.32-.41-.11Z" style="fill: #c29c2f; fill-opacity: 1;"></path><path d="M275.36,502.59l-.41.14c.05-.12.1-.24.16-.36Z" style="fill: #c29c2f; fill-opacity: 1;"></path><path d="M236,562.9l-1.36.15-.27,0,0-.23c0-.13,0-.27,0-.41Z" style="fill: #c29c2f; fill-opacity: 1;"></path><path d="M288.61,604.33a7.65,7.65,0,0,1-2.18,3.07s3,.14,6.86.29C291.72,606.58,290.17,605.46,288.61,604.33Z" style="fill: #c29c2f; fill-opacity: 1;"></path><path d="M423.25,538.27h0a38.18,38.18,0,0,0-19.78-19.82,38.1,38.1,0,0,0-37.7-32.58c-.34,0-.68,0-1,0A38,38,0,0,0,333.28,504a31.49,31.49,0,0,0-53.86-8.67,31.17,31.17,0,0,0-4.31,7l.25.22-.41.14c.05-.12.1-.24.16-.36a24.89,24.89,0,0,0-5.95-3.63A25.23,25.23,0,0,0,221,492.37a24.21,24.21,0,0,0-5.8,3.07,19.25,19.25,0,0,0-6.39-4.54,19.17,19.17,0,0,0-36.56-4.83,18.32,18.32,0,0,0-11,11.2,18,18,0,0,0-1,6,18.29,18.29,0,0,0,18.29,18.29,17.64,17.64,0,0,0,4.51-.57c0,.93.13,5.73-.1,11.18-.12,3.05-.36,6.29-.77,9.17-.51,3.67-1.3,6.75-2.53,8.09l2.68.49c2.6.1,6.29.24,8.71.27l1-.11,1.49-.16a80,80,0,0,1-2.89-16.29,55.42,55.42,0,0,1,0-8.34c0-.25,0-.51.06-.76A19.17,19.17,0,0,0,208,526.38a24.1,24.1,0,0,0,27.17,12c0,.69.07,2.95.06,6,0,.29,0,.59,0,.9,0,4.8-.21,11.3-.85,17.14l1.56.46-1.36.15-.27,0c-.71,6.24-2,11.62-4.11,13.2,0,0,18.79.85,18.79.43,0-.09-.29-1.07-.72-2.71-.48-1.84-1.13-4.54-1.73-7.82A89.83,89.83,0,0,1,245,547.29c.05-1.41.14-2.84.28-4.27a25.1,25.1,0,0,0,13.8,4.11c.27,0,.54,0,.8,0a29.85,29.85,0,0,0,6.37,7.17h0A29.78,29.78,0,0,0,284.43,561c.27,0,.55,0,.82,0a29.67,29.67,0,0,0,7.41-.93c0,.59,0,2.09.06,4.22s0,5.16-.06,8.44-.19,6.75-.41,10.32c-.17,2.76-.41,5.54-.72,8.19-.62,5.25-1.54,10-2.92,13.07,1.56,1.13,3.11,2.25,4.68,3.36,6.91.27,16.58.59,16.58.24a141.1,141.1,0,0,1-4-18.87A104.8,104.8,0,0,1,305,569.5c.07-1.19.16-2.39.28-3.59a31.28,31.28,0,0,0,14.67,5,36.41,36.41,0,0,0,30.54,7.74c.59-.11,1.18-.24,1.76-.39,0,.34,0,.94,0,1.74.05,2.55.1,7.23,0,12.86,0,2.24-.11,4.64-.21,7.11-.16,4.06-.41,8.31-.8,12.42-.23,2.38-.5,4.71-.82,6.93-1.13,7.77-2.92,14.13-5.73,16.2,0,0,28.37,1.29,28.37.65,0-.26-1.51-5-3-12.37a150,150,0,0,1-2.91-22.35c-.17-3.4-.21-6.92-.06-10.49q.1-2.81.39-5.66a37.82,37.82,0,0,0,20.83,6.2,38.65,38.65,0,0,0,8.53-.95,38.14,38.14,0,0,0,26.45-52.3Zm-92.61-29.12-.41-.11.55-.21Z" style="fill: #c29c2f; fill-opacity: 1;"></path><path class="cls-2" d="M292.72,564.31q-4.19-1.71-8.29-3.31c.27,0,.55,0,.82,0a29.67,29.67,0,0,0,7.41-.93C292.67,560.68,292.71,562.18,292.72,564.31Z" style="fill: #f8f5ee; fill-opacity: 1;"></path><path d="M182.34,549.91l-3.07-.13a3.2,3.2,0,0,0,.39-.36Z" style="fill: #c29c2f; fill-opacity: 1;"></path><path d="M193.54,550.1s0,0,0,0l-.09,0-.2,0h-.13c-.23,0-.55,0-1,0h-1.09l1-.11,1.49-.16C193.52,550,193.54,550.08,193.54,550.1Z" style="fill: #c29c2f; fill-opacity: 1;"></path></svg> <svg y="317" viewBox="3.2300000190734863 5.659999847412109 347.6600036621094 28.43000030517578" x="113" height="28" width="347" style="overflow: visible;"><g fill="#575b5c" fill-opacity="1" style=""><path d="M10.87 19.87Q12.62 19.87 13.91 19.06Q15.20 18.24 15.87 16.93Q16.53 15.62 16.53 14.17L16.53 14.17Q16.53 12.69 15.90 11.38Q15.28 10.07 13.98 9.23Q12.69 8.40 10.83 8.40L10.83 8.40L7.60 8.40L7.60 29.53Q7.60 31.05 7.98 31.82Q8.36 32.60 8.82 32.85Q9.27 33.10 9.27 33.02L9.27 33.02L3.23 33.02Q3.23 33.10 3.69 32.83Q4.14 32.57 4.50 31.81Q4.86 31.05 4.86 29.53L4.86 29.53L4.86 10.53Q4.86 8.97 4.50 8.15Q4.14 7.33 3.69 7.05Q3.23 6.76 3.23 6.88L3.23 6.88L10.75 6.88Q13.72 6.88 15.64 7.85Q17.56 8.82 18.41 10.36Q19.27 11.89 19.27 13.72L19.27 13.72Q19.27 15.24 18.54 16.70Q17.82 18.16 16.47 19.25Q15.12 20.33 13.34 20.75L13.34 20.75L12.73 20.86L19.42 29.37Q20.75 30.86 21.62 31.65Q22.50 32.45 22.89 32.72Q23.29 32.98 23.37 33.02L23.37 33.02L18.92 33.02L8.59 19.87L10.87 19.87ZM41.04 22.88L31.58 22.88L29.15 28.92Q28.58 30.32 28.58 31.24L28.58 31.24Q28.58 32.49 29.72 33.02L29.72 33.02L24.28 33.02Q24.66 33.02 25.38 32.26Q26.11 31.50 27.06 29.26L27.06 29.26L36.97 5.66L46.82 29.37Q47.65 31.43 48.43 32.19Q49.21 32.95 49.67 33.02L49.67 33.02L43.36 33.02Q44.31 32.57 44.31 31.62L44.31 31.62Q44.31 30.82 43.70 29.34L43.70 29.34L41.04 22.88ZM32.22 21.32L40.43 21.32L36.29 11.17L32.22 21.32ZM72.05 6.88L77.41 6.88Q76.87 6.99 76.36 7.73Q75.85 8.47 75.85 10.34L75.85 10.34L75.85 34.09L56.39 11.40L56.39 29.60Q56.39 31.43 57.04 32.17Q57.68 32.91 58.29 33.02L58.29 33.02L52.93 33.02Q53.47 32.91 54.02 32.17Q54.57 31.43 54.57 29.56L54.57 29.56L54.57 10.56Q54.57 9.27 53.69 8.21Q52.82 7.14 51.49 6.88L51.49 6.88L56.20 6.88L74.02 27.66L74.02 10.34Q74.02 7.41 72.05 6.88L72.05 6.88ZM104.27 30.70Q102.83 31.88 100.51 32.68Q98.19 33.48 95.84 33.48L95.84 33.48Q92.30 33.48 89.26 31.84Q86.22 30.21 84.38 27.13Q82.54 24.05 82.54 19.91L82.54 19.91Q82.54 16.04 84.23 12.96Q85.92 9.88 89.05 8.15Q92.19 6.42 96.37 6.42L96.37 6.42Q100.81 6.42 104.27 8.36L104.27 8.36L104.27 12.58Q103.09 10.49 100.85 9.25Q98.61 8.02 96.06 8.02L96.06 8.02Q92.83 8.02 90.46 9.54Q88.08 11.06 86.83 13.70Q85.58 16.34 85.58 19.61L85.58 19.61Q85.58 23.29 87.00 26.03Q88.43 28.77 90.86 30.23Q93.29 31.69 96.29 31.69L96.29 31.69Q101.12 31.69 104.27 28.88L104.27 28.88L104.27 30.70ZM127.07 33.02Q127.07 33.14 127.53 32.85Q127.98 32.57 128.36 31.79Q128.74 31.01 128.74 29.49L128.74 29.49L128.74 20.86L114.46 20.86L114.46 29.49Q114.46 31.01 114.84 31.79Q115.22 32.57 115.67 32.83Q116.13 33.10 116.13 33.02L116.13 33.02L110.09 33.02Q110.09 33.14 110.54 32.85Q111.00 32.57 111.36 31.79Q111.72 31.01 111.72 29.49L111.72 29.49L111.72 10.41Q111.72 8.89 111.36 8.11Q111.00 7.33 110.54 7.07Q110.09 6.80 110.09 6.88L110.09 6.88L116.13 6.88Q116.13 6.80 115.67 7.07Q115.22 7.33 114.84 8.11Q114.46 8.89 114.46 10.41L114.46 10.41L114.46 19.19L128.74 19.19L128.74 10.41Q128.74 8.89 128.36 8.11Q127.98 7.33 127.53 7.07Q127.07 6.80 127.07 6.88L127.07 6.88L133.11 6.88Q133.11 6.76 132.66 7.05Q132.20 7.33 131.84 8.11Q131.48 8.89 131.48 10.41L131.48 10.41L131.48 29.49Q131.48 31.01 131.86 31.79Q132.24 32.57 132.70 32.83Q133.15 33.10 133.15 33.02L133.15 33.02L127.07 33.02ZM138.17 20.25Q138.17 16.23 139.90 13.07Q141.63 9.92 144.76 8.17Q147.90 6.42 152 6.42L152 6.42Q155.42 6.42 158.40 7.92Q161.39 9.42 163.19 12.43Q165.00 15.43 165.00 19.65L165.00 19.65Q165.00 23.67 163.27 26.83Q161.54 29.98 158.40 31.73Q155.27 33.48 151.16 33.48L151.16 33.48Q147.74 33.48 144.76 31.98Q141.78 30.48 139.97 27.47Q138.17 24.47 138.17 20.25L138.17 20.25ZM161.96 20.22Q161.96 16.76 160.53 13.96Q159.11 11.17 156.62 9.59Q154.13 8.02 151.01 8.02L151.01 8.02Q148.16 8.02 145.94 9.46Q143.72 10.91 142.46 13.55Q141.21 16.19 141.21 19.68L141.21 19.68Q141.21 23.14 142.63 25.93Q144.06 28.73 146.55 30.30Q149.04 31.88 152.15 31.88L152.15 31.88Q155.00 31.88 157.22 30.44Q159.45 28.99 160.70 26.35Q161.96 23.71 161.96 20.22L161.96 20.22ZM200.72 30.70Q199.27 31.88 196.95 32.68Q194.64 33.48 192.28 33.48L192.28 33.48Q188.75 33.48 185.71 31.84Q182.67 30.21 180.82 27.13Q178.98 24.05 178.98 19.91L178.98 19.91Q178.98 16.04 180.67 12.96Q182.36 9.88 185.50 8.15Q188.63 6.42 192.81 6.42L192.81 6.42Q197.26 6.42 200.72 8.36L200.72 8.36L200.72 12.58Q199.54 10.49 197.30 9.25Q195.05 8.02 192.51 8.02L192.51 8.02Q189.28 8.02 186.90 9.54Q184.53 11.06 183.27 13.70Q182.02 16.34 182.02 19.61L182.02 19.61Q182.02 23.29 183.44 26.03Q184.87 28.77 187.30 30.23Q189.73 31.69 192.74 31.69L192.74 31.69Q197.56 31.69 200.72 28.88L200.72 28.88L200.72 30.70ZM205.73 20.25Q205.73 16.23 207.46 13.07Q209.19 9.92 212.33 8.17Q215.46 6.42 219.56 6.42L219.56 6.42Q222.98 6.42 225.97 7.92Q228.95 9.42 230.75 12.43Q232.56 15.43 232.56 19.65L232.56 19.65Q232.56 23.67 230.83 26.83Q229.10 29.98 225.97 31.73Q222.83 33.48 218.73 33.48L218.73 33.48Q215.31 33.48 212.33 31.98Q209.34 30.48 207.54 27.47Q205.73 24.47 205.73 20.25L205.73 20.25ZM229.52 20.22Q229.52 16.76 228.09 13.96Q226.67 11.17 224.18 9.59Q221.69 8.02 218.58 8.02L218.58 8.02Q215.73 8.02 213.50 9.46Q211.28 10.91 210.03 13.55Q208.77 16.19 208.77 19.68L208.77 19.68Q208.77 23.14 210.20 25.93Q211.62 28.73 214.11 30.30Q216.60 31.88 219.72 31.88L219.72 31.88Q222.57 31.88 224.79 30.44Q227.01 28.99 228.27 26.35Q229.52 23.71 229.52 20.22L229.52 20.22ZM245.25 19.87Q247 19.87 248.29 19.06Q249.58 18.24 250.25 16.93Q250.91 15.62 250.91 14.17L250.91 14.17Q250.91 12.69 250.29 11.38Q249.66 10.07 248.37 9.23Q247.08 8.40 245.21 8.40L245.21 8.40L241.98 8.40L241.98 29.53Q241.98 31.05 242.36 31.82Q242.74 32.60 243.20 32.85Q243.66 33.10 243.66 33.02L243.66 33.02L237.61 33.02Q237.61 33.10 238.07 32.83Q238.53 32.57 238.89 31.81Q239.25 31.05 239.25 29.53L239.25 29.53L239.25 10.53Q239.25 8.97 238.89 8.15Q238.53 7.33 238.07 7.05Q237.61 6.76 237.61 6.88L237.61 6.88L245.14 6.88Q248.10 6.88 250.02 7.85Q251.94 8.82 252.80 10.36Q253.65 11.89 253.65 13.72L253.65 13.72Q253.65 15.24 252.93 16.70Q252.21 18.16 250.86 19.25Q249.51 20.33 247.72 20.75L247.72 20.75L247.11 20.86L253.80 29.37Q255.13 30.86 256.01 31.65Q256.88 32.45 257.28 32.72Q257.68 32.98 257.75 33.02L257.75 33.02L253.31 33.02L242.97 19.87L245.25 19.87ZM268.81 19.87Q270.56 19.87 271.85 19.06Q273.14 18.24 273.81 16.93Q274.47 15.62 274.47 14.17L274.47 14.17Q274.47 12.69 273.85 11.38Q273.22 10.07 271.93 9.23Q270.64 8.40 268.77 8.40L268.77 8.40L265.54 8.40L265.54 29.53Q265.54 31.05 265.92 31.82Q266.30 32.60 266.76 32.85Q267.22 33.10 267.22 33.02L267.22 33.02L261.17 33.02Q261.17 33.10 261.63 32.83Q262.09 32.57 262.45 31.81Q262.81 31.05 262.81 29.53L262.81 29.53L262.81 10.53Q262.81 8.97 262.45 8.15Q262.09 7.33 261.63 7.05Q261.17 6.76 261.17 6.88L261.17 6.88L268.70 6.88Q271.66 6.88 273.58 7.85Q275.50 8.82 276.36 10.36Q277.21 11.89 277.21 13.72L277.21 13.72Q277.21 15.24 276.49 16.70Q275.77 18.16 274.42 19.25Q273.07 20.33 271.28 20.75L271.28 20.75L270.67 20.86L277.36 29.37Q278.69 30.86 279.57 31.65Q280.44 32.45 280.84 32.72Q281.24 32.98 281.31 33.02L281.31 33.02L276.87 33.02L266.53 19.87L268.81 19.87ZM284.70 33.02Q284.70 33.14 285.15 32.85Q285.61 32.57 285.99 31.79Q286.37 31.01 286.37 29.49L286.37 29.49L286.37 10.41Q286.37 8.89 286.01 8.11Q285.65 7.33 285.19 7.07Q284.73 6.80 284.73 6.88L284.73 6.88L290.78 6.88Q290.78 6.80 290.32 7.07Q289.86 7.33 289.48 8.11Q289.10 8.89 289.10 10.41L289.10 10.41L289.10 29.49Q289.10 31.01 289.48 31.79Q289.86 32.57 290.32 32.83Q290.78 33.10 290.78 33.02L290.78 33.02L284.70 33.02ZM313.61 30.89Q310.04 33.02 304.08 33.02L304.08 33.02L296.59 33.02Q296.59 33.14 297.05 32.81Q297.50 32.49 297.86 31.62Q298.22 30.74 298.22 29.07L298.22 29.07L298.22 10.37Q298.22 8.89 297.86 8.11Q297.50 7.33 297.05 7.07Q296.59 6.80 296.59 6.88L296.59 6.88L304.04 6.88Q309.85 6.88 313.23 8.78L313.23 8.78Q316.24 10.45 317.87 13.30Q319.50 16.15 319.50 19.72L319.50 19.72Q319.50 23.60 317.97 26.43Q316.43 29.26 313.61 30.89L313.61 30.89ZM312.13 10.49Q310.46 9.39 308.56 8.89Q306.66 8.40 304.04 8.40L304.04 8.40L300.96 8.40L300.96 31.50L304.04 31.50Q307.15 31.50 309.15 30.97Q311.14 30.44 312.59 29.34L312.59 29.34Q314.45 27.89 315.46 25.55Q316.46 23.22 316.46 20.10L316.46 20.10Q316.46 16.80 315.31 14.31Q314.15 11.82 312.13 10.49L312.13 10.49ZM324.06 20.25Q324.06 16.23 325.79 13.07Q327.52 9.92 330.66 8.17Q333.79 6.42 337.90 6.42L337.90 6.42Q341.32 6.42 344.30 7.92Q347.28 9.42 349.09 12.43Q350.89 15.43 350.89 19.65L350.89 19.65Q350.89 23.67 349.16 26.83Q347.43 29.98 344.30 31.73Q341.16 33.48 337.06 33.48L337.06 33.48Q333.64 33.48 330.66 31.98Q327.67 30.48 325.87 27.47Q324.06 24.47 324.06 20.25L324.06 20.25ZM347.85 20.22Q347.85 16.76 346.43 13.96Q345.00 11.17 342.51 9.59Q340.02 8.02 336.91 8.02L336.91 8.02Q334.06 8.02 331.83 9.46Q329.61 10.91 328.36 13.55Q327.10 16.19 327.10 19.68L327.10 19.68Q327.10 23.14 328.53 25.93Q329.95 28.73 332.44 30.30Q334.93 31.88 338.05 31.88L338.05 31.88Q340.90 31.88 343.12 30.44Q345.34 28.99 346.60 26.35Q347.85 23.71 347.85 20.22L347.85 20.22Z" transform="translate(0, 0)"></path></g></svg></svg>